<svg width="232" height="224" viewBox="0 0 232 224" fill="none" xmlns="http://www.w3.org/2000/svg">
<path d="M0 0.190118C19.1772 0.156404 38.3543 0.130301 57.5315 0.114741C59.7984 0.112894 62.0653 0.110984 64.3322 0.109033C64.7834 0.108646 65.2347 0.108259 65.6997 0.10786C72.9952 0.101447 80.2907 0.0898138 87.5862 0.0762328C95.0787 0.0624019 102.571 0.0543348 110.064 0.051234C114.269 0.0493125 118.475 0.0448073 122.681 0.0340499C126.643 0.023998 130.605 0.0209468 134.567 0.0231598C136.017 0.0227552 137.468 0.019839 138.919 0.0141589C152.778 -0.0374274 152.778 -0.0374275 159.5 1.66622C160.081 1.79218 160.661 1.91814 161.26 2.04792C175.38 5.23867 189.358 17.6253 197.233 30.6808C204.772 43.6494 208.387 57.4036 208.396 72.7958C208.404 73.5169 208.412 74.2381 208.421 74.9811C208.452 92.621 201.524 109.739 191.136 122.706C190.758 123.182 190.38 123.658 189.991 124.148C187.226 127.428 184.089 129.816 180.696 132.235C179.107 133.664 179.107 133.664 178.894 135.89C179.358 138.73 180.44 140.506 181.991 142.726C182.602 143.64 183.211 144.555 183.819 145.471C184.15 145.962 184.48 146.454 184.82 146.961C186.706 149.811 188.504 152.73 190.313 155.642C191.103 156.909 191.893 158.175 192.684 159.442C193.081 160.078 193.477 160.714 193.886 161.37C195.082 163.285 196.279 165.198 197.478 167.11C201.313 173.234 205.13 179.368 208.904 185.539C211.083 189.096 213.296 192.623 215.523 196.142C232 222.201 232 222.201 232 223.819C229.271 223.875 226.543 223.915 223.814 223.941C222.89 223.952 221.967 223.967 221.043 223.986C202.244 224.372 185.892 216.654 172.27 202.231C169.618 199.184 167.565 195.901 165.519 192.325C163.999 189.669 162.419 187.068 160.818 184.472C160.519 183.985 160.219 183.498 159.91 182.996C153.852 173.157 147.743 163.357 141.622 153.566C141.251 152.971 140.879 152.377 140.496 151.764C138.538 148.632 136.575 145.505 134.604 142.383C134.193 141.73 133.782 141.077 133.358 140.404C132.581 139.171 131.803 137.939 131.022 136.709C123.167 124.217 123.167 124.217 123.538 117.462C124.18 113.767 125.405 111.254 127.864 108.683C132.54 105.374 136.684 103.518 142.19 103.378C150.49 103.117 158.17 100.821 164.114 93.9224C169.125 86.6756 171.601 77.9488 170.705 68.8287C169.328 60.2686 165.183 53.1488 158.841 48.1634C153.8 45.0505 149.505 43.6429 143.749 43.6431C143.075 43.6415 143.075 43.6415 142.387 43.64C140.885 43.6373 139.384 43.6397 137.882 43.6421C136.804 43.641 135.725 43.6396 134.647 43.6379C132.325 43.6346 130.004 43.6332 127.683 43.6331C124.006 43.6323 120.33 43.6228 116.653 43.6113C116.032 43.6094 115.411 43.6075 114.771 43.6056C113.501 43.6017 112.231 43.5978 110.96 43.5938C102.404 43.568 93.8479 43.5483 85.2916 43.5502C79.5169 43.5514 73.7423 43.5395 67.9676 43.5128C64.915 43.4992 61.8626 43.4922 58.8099 43.5013C55.9345 43.5098 53.0594 43.501 50.184 43.4794C49.1341 43.4746 48.0841 43.4758 47.0342 43.4841C38.8998 43.5425 31.7615 42.1993 25.6453 35.6597C23.6891 33.2989 21.8822 30.822 20.092 28.3023C18.275 25.7718 16.3958 23.3118 14.5 20.8555C11.598 17.0867 8.75897 13.2697 5.96271 9.40132C4.30044 7.1456 2.56547 4.97198 0.800693 2.81654C0 1.66622 0 1.66622 0 0.190118Z" fill="#00244B"/>
<path d="M18.704 67.0501C19.7127 67.0417 19.7127 67.0417 20.7418 67.0331C22.9606 67.0215 25.1777 67.0477 27.3963 67.0755C28.9428 67.0777 30.4894 67.078 32.0359 67.0765C35.2767 67.0789 38.517 67.0991 41.7576 67.1328C45.9021 67.1752 50.0458 67.1815 54.1904 67.1752C57.3847 67.1731 60.5787 67.1864 63.7729 67.2046C65.3004 67.2122 66.8279 67.2161 68.3554 67.216C70.496 67.219 72.6358 67.2417 74.7763 67.2698C75.7149 67.266 75.7149 67.266 76.6725 67.2621C82.4653 67.377 87.0378 69.4813 91.3137 73.9528C93.0539 76.0435 94.4221 78.336 95.783 80.7559C96.0858 81.2793 96.3886 81.8027 96.7006 82.3419C97.6587 84.0006 98.6071 85.6661 99.5548 87.3325C100.808 89.517 102.064 91.6985 103.321 93.8798C103.622 94.4048 103.923 94.9297 104.233 95.4706C106.438 99.2999 108.766 102.981 111.222 106.609C112.119 108.19 112.119 108.19 112.119 110.44C111.383 110.443 110.647 110.445 109.889 110.448C102.955 110.476 96.021 110.519 89.087 110.578C85.5221 110.607 81.9573 110.632 78.3924 110.643C74.952 110.654 71.512 110.68 68.0718 110.716C66.7592 110.727 65.4466 110.733 64.134 110.734C62.2955 110.736 60.4578 110.756 58.6194 110.78C58.0766 110.777 57.5337 110.773 56.9744 110.769C54.4 110.822 53.071 111.005 50.8143 112.545C49.2883 114.166 49.2883 114.166 49.0925 116.908C49.5061 123.764 53.6965 129.378 57.4137 134.438C57.9209 135.153 58.4281 135.868 58.9507 136.606C62.4406 141.473 66.1588 146.023 70.0601 150.468C70.4904 150.958 70.9207 151.448 71.364 151.953C74.3004 155.256 77.3494 158.376 80.4821 161.435C80.8246 161.774 81.167 162.113 81.5199 162.462C87.1111 167.994 92.9237 173.15 98.8404 178.22C100.211 179.396 101.577 180.579 102.943 181.763C108.514 186.577 114.195 191.164 119.985 195.63C122.408 197.502 124.822 199.389 127.237 201.276C127.694 201.631 128.15 201.986 128.621 202.352C131.817 204.846 131.817 204.846 132.551 205.681C132.578 207.181 132.579 208.682 132.551 210.181C126.661 210.233 120.77 210.273 114.88 210.298C112.144 210.309 109.409 210.325 106.673 210.351C104.027 210.375 101.382 210.389 98.7368 210.395C97.7328 210.399 96.7289 210.407 95.725 210.419C87.8521 210.511 81.1205 209.433 74.0971 205.26C73.655 205.001 73.2129 204.743 72.7573 204.477C60.9094 197.423 50.5519 188.468 40.9362 177.934C40.5586 177.521 40.1811 177.108 39.7921 176.682C34.769 171.152 30.0042 165.537 25.7769 159.186C25.4516 158.698 25.1263 158.211 24.7912 157.709C20.8847 151.823 17.1273 145.866 13.9131 139.453C13.6909 139.015 13.4688 138.577 13.2399 138.125C9.10945 129.574 7.46942 121.711 7.52037 112.016C7.51647 110.899 7.51169 109.782 7.50608 108.665C7.49832 106.345 7.50257 104.025 7.51539 101.704C7.53055 98.7407 7.5127 95.7792 7.48569 92.8161C7.46879 90.5179 7.47054 88.22 7.47771 85.9217C7.47868 84.8293 7.47368 83.7368 7.46238 82.6444C7.44914 81.1182 7.46403 79.5918 7.47999 78.0656C7.48114 77.2008 7.4823 76.3359 7.4835 75.4448C8.90819 68.2842 12.779 66.9168 18.704 67.0501Z" fill="#038578"/>
</svg>
