<svg width="1034" height="226" viewBox="0 0 1034 226" fill="none" xmlns="http://www.w3.org/2000/svg">
<path d="M0 0.190118C19.1772 0.156404 38.3543 0.130301 57.5315 0.114741C59.7984 0.112894 62.0653 0.110984 64.3322 0.109033C64.7834 0.108646 65.2347 0.108259 65.6997 0.10786C72.9952 0.101447 80.2907 0.0898138 87.5862 0.0762328C95.0787 0.0624019 102.571 0.0543348 110.064 0.051234C114.269 0.0493125 118.475 0.0448073 122.681 0.0340499C126.643 0.023998 130.605 0.0209468 134.567 0.0231598C136.017 0.0227552 137.468 0.019839 138.919 0.0141589C152.778 -0.0374274 152.778 -0.0374275 159.5 1.66622C160.081 1.79218 160.661 1.91814 161.26 2.04792C175.38 5.23867 189.358 17.6253 197.233 30.6808C204.772 43.6494 208.387 57.4036 208.396 72.7958C208.404 73.5169 208.412 74.2381 208.421 74.9811C208.452 92.621 201.524 109.739 191.136 122.706C190.758 123.182 190.38 123.658 189.991 124.148C187.226 127.428 184.089 129.816 180.696 132.235C179.107 133.664 179.107 133.664 178.894 135.89C179.358 138.73 180.44 140.506 181.991 142.726C182.602 143.64 183.211 144.555 183.819 145.471C184.15 145.962 184.48 146.454 184.82 146.961C186.706 149.811 188.504 152.73 190.313 155.642C191.103 156.909 191.893 158.175 192.684 159.442C193.081 160.078 193.477 160.714 193.886 161.37C195.082 163.285 196.279 165.198 197.478 167.11C201.313 173.234 205.13 179.368 208.904 185.539C211.083 189.096 213.296 192.623 215.523 196.142C232 222.201 232 222.201 232 223.819C229.271 223.875 226.543 223.915 223.814 223.941C222.89 223.952 221.967 223.967 221.043 223.986C202.244 224.372 185.892 216.654 172.27 202.231C169.618 199.184 167.565 195.901 165.519 192.325C163.999 189.669 162.419 187.068 160.818 184.472C160.519 183.985 160.219 183.498 159.91 182.996C153.852 173.157 147.743 163.357 141.622 153.566C141.251 152.971 140.879 152.377 140.496 151.764C138.538 148.632 136.575 145.505 134.604 142.383C134.193 141.73 133.782 141.077 133.358 140.404C132.581 139.171 131.803 137.939 131.022 136.709C123.167 124.217 123.167 124.217 123.538 117.462C124.18 113.767 125.405 111.254 127.864 108.683C132.54 105.374 136.684 103.518 142.19 103.378C150.49 103.117 158.17 100.821 164.114 93.9224C169.125 86.6756 171.601 77.9488 170.705 68.8287C169.328 60.2686 165.183 53.1488 158.841 48.1634C153.8 45.0505 149.505 43.6429 143.749 43.6431C143.075 43.6415 143.075 43.6415 142.387 43.64C140.885 43.6373 139.384 43.6397 137.882 43.6421C136.804 43.641 135.725 43.6396 134.647 43.6379C132.325 43.6346 130.004 43.6332 127.683 43.6331C124.006 43.6323 120.33 43.6228 116.653 43.6113C116.032 43.6094 115.411 43.6075 114.771 43.6056C113.501 43.6017 112.231 43.5978 110.96 43.5938C102.404 43.568 93.8479 43.5483 85.2916 43.5502C79.5169 43.5514 73.7423 43.5395 67.9676 43.5128C64.915 43.4992 61.8626 43.4922 58.8099 43.5013C55.9345 43.5098 53.0594 43.501 50.184 43.4794C49.1341 43.4746 48.0841 43.4758 47.0342 43.4841C38.8998 43.5425 31.7615 42.1993 25.6453 35.6597C23.6891 33.2989 21.8822 30.822 20.092 28.3023C18.275 25.7718 16.3958 23.3118 14.5 20.8555C11.598 17.0867 8.75897 13.2697 5.96271 9.40132C4.30044 7.1456 2.56547 4.97198 0.800693 2.81654C0 1.66622 0 1.66622 0 0.190118Z" fill="#00244B"/>
<path d="M18.704 67.0501C19.7127 67.0417 19.7127 67.0417 20.7418 67.0331C22.9606 67.0215 25.1777 67.0477 27.3963 67.0755C28.9428 67.0777 30.4894 67.078 32.0359 67.0765C35.2767 67.0789 38.517 67.0991 41.7576 67.1328C45.9021 67.1752 50.0458 67.1815 54.1904 67.1752C57.3847 67.1731 60.5787 67.1864 63.7729 67.2046C65.3004 67.2122 66.8279 67.2161 68.3554 67.216C70.496 67.219 72.6358 67.2417 74.7763 67.2698C75.7149 67.266 75.7149 67.266 76.6725 67.2621C82.4653 67.377 87.0378 69.4813 91.3137 73.9528C93.0539 76.0435 94.4221 78.336 95.783 80.7559C96.0858 81.2793 96.3886 81.8027 96.7006 82.3419C97.6587 84.0006 98.6071 85.6661 99.5548 87.3325C100.808 89.517 102.064 91.6985 103.321 93.8798C103.622 94.4048 103.923 94.9297 104.233 95.4706C106.438 99.2999 108.766 102.981 111.222 106.609C112.119 108.19 112.119 108.19 112.119 110.44C111.383 110.443 110.647 110.445 109.889 110.448C102.955 110.476 96.021 110.519 89.087 110.578C85.5221 110.607 81.9573 110.632 78.3924 110.643C74.952 110.654 71.512 110.68 68.0718 110.716C66.7592 110.727 65.4466 110.733 64.134 110.734C62.2955 110.736 60.4578 110.756 58.6194 110.78C58.0766 110.777 57.5337 110.773 56.9744 110.769C54.4 110.822 53.071 111.005 50.8143 112.545C49.2883 114.166 49.2883 114.166 49.0925 116.908C49.5061 123.764 53.6965 129.378 57.4137 134.438C57.9209 135.153 58.4281 135.868 58.9507 136.606C62.4406 141.473 66.1588 146.023 70.0601 150.468C70.4904 150.958 70.9207 151.448 71.364 151.953C74.3004 155.256 77.3494 158.376 80.4821 161.435C80.8246 161.774 81.167 162.113 81.5199 162.462C87.1111 167.994 92.9237 173.15 98.8404 178.22C100.211 179.396 101.577 180.579 102.943 181.763C108.514 186.577 114.195 191.164 119.985 195.63C122.408 197.502 124.822 199.389 127.237 201.276C127.694 201.631 128.15 201.986 128.621 202.352C131.817 204.846 131.817 204.846 132.551 205.681C132.578 207.181 132.579 208.682 132.551 210.181C126.661 210.233 120.77 210.273 114.88 210.298C112.144 210.309 109.409 210.325 106.673 210.351C104.027 210.375 101.382 210.389 98.7368 210.395C97.7328 210.399 96.7289 210.407 95.725 210.419C87.8521 210.511 81.1205 209.433 74.0971 205.26C73.655 205.001 73.2129 204.743 72.7573 204.477C60.9094 197.423 50.5519 188.468 40.9362 177.934C40.5586 177.521 40.1811 177.108 39.7921 176.682C34.769 171.152 30.0042 165.537 25.7769 159.186C25.4516 158.698 25.1263 158.211 24.7912 157.709C20.8847 151.823 17.1273 145.866 13.9131 139.453C13.6909 139.015 13.4688 138.577 13.2399 138.125C9.10945 129.574 7.46942 121.711 7.52037 112.016C7.51647 110.899 7.51169 109.782 7.50608 108.665C7.49832 106.345 7.50257 104.025 7.51539 101.704C7.53055 98.7407 7.5127 95.7792 7.48569 92.8161C7.46879 90.5179 7.47054 88.22 7.47771 85.9217C7.47868 84.8293 7.47368 83.7368 7.46238 82.6444C7.44914 81.1182 7.46403 79.5918 7.47999 78.0656C7.48114 77.2008 7.4823 76.3359 7.4835 75.4448C8.90819 68.2842 12.779 66.9168 18.704 67.0501Z" fill="#038578"/>
<path d="M270.15 155V50.6H313.288C314.303 50.6 315.608 50.6483 317.203 50.745C318.798 50.7933 320.272 50.9383 321.625 51.18C327.667 52.0983 332.645 54.1042 336.56 57.1975C340.523 60.2908 343.448 64.2058 345.333 68.9425C347.266 73.6308 348.233 78.8508 348.233 84.6025C348.233 93.1092 346.082 100.432 341.78 106.57C337.478 112.66 330.881 116.43 321.988 117.88L314.52 118.532H287.623V155H270.15ZM330.108 155L309.518 112.515L327.28 108.6L349.9 155H330.108ZM287.623 102.22H312.563C313.529 102.22 314.617 102.172 315.825 102.075C317.033 101.978 318.145 101.785 319.16 101.495C322.06 100.77 324.332 99.4892 325.975 97.6525C327.667 95.8158 328.851 93.7375 329.528 91.4175C330.253 89.0975 330.615 86.8258 330.615 84.6025C330.615 82.3792 330.253 80.1075 329.528 77.7875C328.851 75.4192 327.667 73.3167 325.975 71.48C324.332 69.6433 322.06 68.3625 319.16 67.6375C318.145 67.3475 317.033 67.1783 315.825 67.13C314.617 67.0333 313.529 66.985 312.563 66.985H287.623V102.22ZM401.47 157.175C393.543 157.175 386.583 155.459 380.59 152.027C374.597 148.596 369.908 143.835 366.525 137.745C363.19 131.655 361.523 124.647 361.523 116.72C361.523 108.165 363.166 100.746 366.453 94.4625C369.739 88.1308 374.307 83.225 380.155 79.745C386.003 76.265 392.77 74.525 400.455 74.525C408.575 74.525 415.463 76.4342 421.118 80.2525C426.821 84.0225 431.05 89.3633 433.805 96.275C436.56 103.187 437.599 111.331 436.923 120.707H419.595V114.327C419.547 105.821 418.048 99.61 415.1 95.695C412.152 91.78 407.512 89.8225 401.18 89.8225C394.027 89.8225 388.71 92.0458 385.23 96.4925C381.75 100.891 380.01 107.343 380.01 115.85C380.01 123.777 381.75 129.915 385.23 134.265C388.71 138.615 393.785 140.79 400.455 140.79C404.757 140.79 408.454 139.847 411.548 137.962C414.689 136.029 417.106 133.25 418.798 129.625L436.053 134.845C433.056 141.902 428.416 147.387 422.133 151.302C415.898 155.217 409.01 157.175 401.47 157.175ZM374.5 120.707V107.512H428.368V120.707H374.5ZM471.437 155L443.017 76.7H460.49L480.21 133.467L499.857 76.7H517.402L488.982 155H471.437ZM562.164 157.175C554.334 157.175 547.495 155.411 541.647 151.882C535.798 148.354 531.255 143.497 528.017 137.31C524.827 131.075 523.232 123.922 523.232 115.85C523.232 107.633 524.875 100.432 528.162 94.245C531.448 88.0583 536.016 83.225 541.864 79.745C547.712 76.265 554.479 74.525 562.164 74.525C570.042 74.525 576.906 76.2892 582.754 79.8175C588.602 83.3458 593.146 88.2275 596.384 94.4625C599.622 100.649 601.242 107.778 601.242 115.85C601.242 123.97 599.598 131.147 596.312 137.382C593.073 143.569 588.53 148.427 582.682 151.955C576.833 155.435 569.994 157.175 562.164 157.175ZM562.164 140.79C569.124 140.79 574.296 138.47 577.679 133.83C581.062 129.19 582.754 123.197 582.754 115.85C582.754 108.262 581.038 102.22 577.607 97.725C574.175 93.1817 569.027 90.91 562.164 90.91C557.476 90.91 553.609 91.9733 550.564 94.1C547.567 96.1783 545.344 99.1025 543.894 102.872C542.444 106.594 541.719 110.92 541.719 115.85C541.719 123.438 543.435 129.504 546.867 134.047C550.347 138.542 555.446 140.79 562.164 140.79Z" fill="#00244B"/>
<path d="M655.858 157.175C648.221 157.175 641.334 155.846 635.195 153.187C629.105 150.529 624.079 146.735 620.115 141.805C616.2 136.827 613.711 130.93 612.648 124.115L630.773 121.36C632.32 127.547 635.485 132.332 640.27 135.715C645.104 139.098 650.662 140.79 656.945 140.79C660.667 140.79 664.171 140.21 667.458 139.05C670.745 137.89 673.403 136.198 675.433 133.975C677.511 131.752 678.55 129.021 678.55 125.782C678.55 124.332 678.309 123.003 677.825 121.795C677.342 120.538 676.617 119.427 675.65 118.46C674.732 117.493 673.524 116.623 672.025 115.85C670.575 115.028 668.884 114.327 666.95 113.747L639.98 105.772C637.66 105.096 635.147 104.202 632.44 103.09C629.782 101.93 627.245 100.359 624.828 98.3775C622.46 96.3475 620.502 93.7858 618.955 90.6925C617.457 87.5508 616.708 83.6842 616.708 79.0925C616.708 72.3742 618.4 66.7433 621.783 62.2C625.215 57.6083 629.806 54.1767 635.558 51.905C641.358 49.6333 647.786 48.5217 654.843 48.57C661.996 48.6183 668.376 49.8508 673.983 52.2675C679.59 54.6358 684.278 58.0917 688.048 62.635C691.818 67.1783 694.476 72.6642 696.023 79.0925L677.245 82.355C676.472 78.6817 674.974 75.5642 672.75 73.0025C670.575 70.3925 667.893 68.4108 664.703 67.0575C661.561 65.7042 658.202 64.9792 654.625 64.8825C651.145 64.8342 647.907 65.3658 644.91 66.4775C641.962 67.5408 639.57 69.0875 637.733 71.1175C635.945 73.1475 635.05 75.5158 635.05 78.2225C635.05 80.7842 635.824 82.8867 637.37 84.53C638.917 86.125 640.826 87.4058 643.098 88.3725C645.418 89.2908 647.762 90.0642 650.13 90.6925L668.835 95.9125C671.397 96.5892 674.273 97.5075 677.463 98.6675C680.653 99.8275 683.722 101.447 686.67 103.525C689.619 105.603 692.035 108.334 693.92 111.717C695.854 115.101 696.82 119.402 696.82 124.622C696.82 130.036 695.685 134.797 693.413 138.905C691.19 142.965 688.169 146.348 684.35 149.055C680.532 151.762 676.158 153.792 671.228 155.145C666.346 156.498 661.223 157.175 655.858 157.175ZM766.671 155V117.3C766.671 114.835 766.502 112.104 766.163 109.107C765.825 106.111 765.027 103.235 763.771 100.48C762.562 97.6767 760.726 95.3808 758.261 93.5925C755.844 91.8042 752.557 90.91 748.401 90.91C746.177 90.91 743.978 91.2725 741.803 91.9975C739.628 92.7225 737.647 93.9792 735.858 95.7675C734.118 97.5075 732.717 99.9242 731.653 103.017C730.59 106.062 730.058 109.977 730.058 114.762L719.691 110.34C719.691 103.67 720.972 97.6283 723.533 92.215C726.143 86.8017 729.962 82.5 734.988 79.31C740.015 76.0717 746.202 74.4525 753.548 74.4525C759.348 74.4525 764.133 75.4192 767.903 77.3525C771.673 79.2858 774.67 81.7508 776.893 84.7475C779.117 87.7442 780.76 90.9342 781.823 94.3175C782.887 97.7008 783.563 100.915 783.853 103.96C784.192 106.957 784.361 109.397 784.361 111.282V155H766.671ZM712.368 155V50.6H727.956V105.555H730.058V155H712.368ZM838.877 157.175C830.951 157.175 823.991 155.459 817.997 152.027C812.004 148.596 807.316 143.835 803.932 137.745C800.597 131.655 798.93 124.647 798.93 116.72C798.93 108.165 800.573 100.746 803.86 94.4625C807.147 88.1308 811.714 83.225 817.562 79.745C823.411 76.265 830.177 74.525 837.862 74.525C845.982 74.525 852.87 76.4342 858.525 80.2525C864.228 84.0225 868.457 89.3633 871.212 96.275C873.967 103.187 875.007 111.331 874.33 120.707H857.002V114.327C856.954 105.821 855.456 99.61 852.507 95.695C849.559 91.78 844.919 89.8225 838.587 89.8225C831.434 89.8225 826.117 92.0458 822.637 96.4925C819.157 100.891 817.417 107.343 817.417 115.85C817.417 123.777 819.157 129.915 822.637 134.265C826.117 138.615 831.192 140.79 837.862 140.79C842.164 140.79 845.862 139.847 848.955 137.962C852.097 136.029 854.513 133.25 856.205 129.625L873.46 134.845C870.463 141.902 865.823 147.387 859.54 151.302C853.305 155.217 846.417 157.175 838.877 157.175ZM811.907 120.707V107.512H865.775V120.707H811.907ZM891.956 155V48.425H909.429V155H891.956ZM937.961 155V75.4675C937.961 73.4858 938.034 71.3108 938.179 68.9425C938.324 66.5258 938.734 64.1333 939.411 61.765C940.088 59.3967 941.32 57.2458 943.109 55.3125C945.332 52.8475 947.724 51.1558 950.286 50.2375C952.896 49.2708 955.458 48.7392 957.971 48.6425C960.484 48.4975 962.684 48.425 964.569 48.425H974.356V62.635H965.294C961.959 62.635 959.469 63.4808 957.826 65.1725C956.231 66.8158 955.434 68.9908 955.434 71.6975V155H937.961ZM925.346 90.4025V76.7H974.356V90.4025H925.346Z" fill="#038578"/>
</svg>
